<svg width="35" height="20" viewBox="0 0 35 20" fill="none" xmlns="http://www.w3.org/2000/svg">
<path d="M18.5903 19.5277L34.5841 2.55563C34.8511 2.27244 35 1.89621 35 1.50496C35 1.11372 34.8511 0.737483 34.5841 0.454297L34.566 0.436025C34.4365 0.298267 34.2807 0.188571 34.1081 0.113612C33.9354 0.0386536 33.7494 -7.15256e-07 33.5615 -7.15256e-07C33.3736 -7.15256e-07 33.1876 0.0386536 33.0149 0.113612C32.8422 0.188571 32.6864 0.298267 32.557 0.436025L17.497 16.4183L2.44302 0.436025C2.31359 0.298267 2.15779 0.188571 1.9851 0.113612C1.81241 0.0386536 1.62645 -7.15256e-07 1.43852 -7.15256e-07C1.25059 -7.15256e-07 1.06463 0.0386536 0.891943 0.113612C0.719256 0.188571 0.563452 0.298267 0.434015 0.436025L0.415945 0.454297C0.148947 0.737483 -1.72853e-06 1.11372 -1.72853e-06 1.50496C-1.72853e-06 1.89621 0.148947 2.27244 0.415945 2.55563L16.4097 19.5277C16.5503 19.6769 16.7195 19.7957 16.9069 19.8769C17.0943 19.9581 17.2961 20 17.5 20C17.7039 20 17.9057 19.9581 18.0931 19.8769C18.2805 19.7957 18.4497 19.6769 18.5903 19.5277Z" fill="white"/>
<path d="M18.5903 19.5277L34.5841 2.55563C34.8511 2.27244 35 1.89621 35 1.50496C35 1.11372 34.8511 0.737483 34.5841 0.454297L34.566 0.436025C34.4365 0.298267 34.2807 0.188571 34.1081 0.113612C33.9354 0.0386536 33.7494 -7.15256e-07 33.5615 -7.15256e-07C33.3736 -7.15256e-07 33.1876 0.0386536 33.0149 0.113612C32.8422 0.188571 32.6864 0.298267 32.557 0.436025L17.497 16.4183L2.44302 0.436025C2.31359 0.298267 2.15779 0.188571 1.9851 0.113612C1.81241 0.0386536 1.62645 -7.15256e-07 1.43852 -7.15256e-07C1.25059 -7.15256e-07 1.06463 0.0386536 0.891943 0.113612C0.719256 0.188571 0.563452 0.298267 0.434015 0.436025L0.415945 0.454297C0.148947 0.737483 -1.72853e-06 1.11372 -1.72853e-06 1.50496C-1.72853e-06 1.89621 0.148947 2.27244 0.415945 2.55563L16.4097 19.5277C16.5503 19.6769 16.7195 19.7957 16.9069 19.8769C17.0943 19.9581 17.2961 20 17.5 20C17.7039 20 17.9057 19.9581 18.0931 19.8769C18.2805 19.7957 18.4497 19.6769 18.5903 19.5277Z" stroke="white"/>
</svg>
